<svg id="svg" version="1.1" xmlns="http://www.w3.org/2000/svg" xmlns:xlink="http://www.w3.org/1999/xlink" width="400" height="365" viewBox="0, 0, 400,365"><g id="svgg"><path id="path0" d="M283.917 169.061 C 282.270 186.203,275.779 202.184,264.974 215.700 L 262.916 218.274 262.490 217.575 C 262.256 217.190,260.738 214.625,259.117 211.875 C 257.496 209.125,255.270 205.356,254.171 203.500 C 249.795 196.114,248.219 193.446,245.754 189.250 C 244.341 186.844,242.710 184.088,242.130 183.125 C 241.550 182.162,240.309 180.081,239.373 178.500 C 236.372 173.431,236.617 173.735,235.819 174.097 C 235.437 174.270,234.762 174.572,234.318 174.768 C 232.692 175.487,212.916 195.555,213.272 196.125 C 213.443 196.400,214.616 198.369,215.877 200.500 C 218.469 204.878,236.804 235.304,237.834 236.935 L 238.503 237.994 235.794 239.353 C 211.287 251.644,182.509 252.091,157.927 240.563 C 156.037 239.676,155.514 239.325,155.631 239.020 C 155.714 238.803,161.779 228.613,169.108 216.375 C 176.437 204.137,182.553 193.894,182.699 193.612 C 182.950 193.127,160.510 170.110,160.176 170.510 C 159.996 170.725,155.325 178.597,150.613 186.625 C 148.031 191.025,143.686 198.421,140.957 203.061 C 135.846 211.750,129.614 222.345,120.959 237.062 C 118.230 241.702,113.764 249.296,111.033 253.937 C 108.303 258.578,103.820 266.200,101.070 270.875 C 98.320 275.550,94.753 281.615,93.142 284.353 C 91.532 287.090,89.969 289.678,89.669 290.103 C 89.017 291.027,88.952 291.133,86.948 294.586 C 86.083 296.077,85.178 297.624,84.938 298.023 C 83.901 299.745,83.546 300.345,82.125 302.775 C 80.168 306.123,79.516 307.231,79.027 308.039 C 78.806 308.404,77.894 309.962,77.000 311.500 C 76.106 313.038,75.178 314.624,74.938 315.023 C 73.901 316.745,73.546 317.345,72.125 319.775 C 70.232 323.013,69.533 324.203,69.027 325.042 C 68.806 325.409,67.977 326.834,67.186 328.208 L 65.746 330.707 65.811 346.578 L 65.875 362.449 69.511 360.037 C 71.511 358.710,74.605 356.673,76.386 355.509 C 78.168 354.346,82.389 351.578,85.767 349.359 L 91.910 345.323 103.038 326.724 C 109.158 316.495,119.867 298.596,126.835 286.950 L 139.505 265.775 143.315 267.641 C 176.625 283.959,218.327 283.395,250.750 266.189 C 252.331 265.349,254.167 264.397,254.829 264.073 C 261.679 260.716,272.872 252.155,280.325 244.571 C 301.816 222.702,312.962 197.616,315.097 166.313 L 315.221 164.500 299.788 164.500 L 284.355 164.500 283.917 169.061 M280.184 249.870 C 279.668 250.047,279.078 250.332,278.873 250.502 C 278.668 250.672,278.500 250.735,278.500 250.641 C 278.500 250.548,277.459 251.393,276.188 252.519 C 272.094 256.142,267.833 259.300,262.375 262.756 C 260.587 263.888,258.820 265.024,258.448 265.282 C 258.075 265.539,257.666 265.750,257.539 265.750 C 257.412 265.750,256.960 265.896,256.534 266.075 L 255.761 266.400 256.420 267.638 C 257.180 269.067,258.727 271.652,271.748 293.250 C 277.011 301.981,281.683 309.800,282.129 310.625 C 282.575 311.450,283.561 313.137,284.321 314.375 C 285.081 315.613,287.467 319.550,289.622 323.125 C 291.778 326.700,293.646 329.794,293.774 330.000 C 294.546 331.248,296.932 335.223,298.125 337.250 C 298.894 338.556,300.278 340.863,301.199 342.375 L 302.875 345.125 307.062 347.875 C 311.211 350.601,314.384 352.669,321.625 357.369 C 323.688 358.708,326.275 360.400,327.375 361.128 L 329.375 362.453 329.439 346.617 L 329.504 330.780 327.714 327.703 C 326.729 326.010,325.081 323.219,324.051 321.500 C 323.020 319.781,321.982 318.038,321.744 317.625 C 321.506 317.212,320.214 315.019,318.873 312.750 C 313.677 303.960,313.176 303.110,312.900 302.625 C 312.743 302.350,311.777 300.719,310.752 299.000 C 309.727 297.281,308.717 295.581,308.507 295.222 C 308.297 294.863,306.144 291.263,303.724 287.222 C 299.550 280.255,297.209 276.308,289.503 263.250 C 280.793 248.490,281.451 249.434,280.184 249.870 " stroke="none" fill="#f0f0f5" fill-rule="evenodd"></path><path id="path1" d="M192.250 3.000 C 176.719 3.571,159.748 6.939,144.750 12.427 C 143.031 13.056,141.231 13.714,140.750 13.890 C 116.172 22.866,89.154 43.077,71.757 65.500 C 70.743 66.806,69.840 67.931,69.751 68.000 C 69.375 68.287,63.241 77.094,61.652 79.628 C 60.704 81.139,59.678 82.769,59.371 83.250 C 58.223 85.055,56.058 88.673,55.333 90.000 C 54.050 92.350,50.983 97.564,50.114 98.875 C 49.658 99.563,48.986 100.744,48.621 101.500 C 48.255 102.256,48.032 102.594,48.124 102.250 C 48.215 101.906,48.351 101.372,48.424 101.063 C 48.498 100.753,48.658 100.500,48.779 100.500 C 48.901 100.500,48.997 100.303,48.992 100.063 C 48.980 99.376,48.558 100.203,47.194 103.584 C 46.028 106.472,45.726 107.517,46.277 106.750 C 46.502 106.438,46.522 106.452,46.399 106.833 C 46.317 107.085,46.250 107.345,46.250 107.410 C 46.250 107.476,46.153 107.470,46.035 107.397 C 45.681 107.178,44.928 109.130,45.126 109.754 C 45.239 110.110,45.211 110.255,45.048 110.155 C 44.720 109.952,43.889 112.101,44.092 112.629 C 44.176 112.847,44.150 112.968,44.035 112.897 C 43.841 112.776,43.666 113.239,42.486 117.000 C 41.746 119.357,40.228 125.022,39.539 128.000 C 37.955 134.842,36.387 144.570,35.994 149.990 C 35.879 151.577,35.650 154.716,35.486 156.967 C 34.326 172.875,36.817 195.499,41.490 211.500 C 42.363 214.490,44.046 219.861,44.526 221.187 C 45.819 224.765,46.078 225.463,46.521 226.563 C 46.785 227.216,47.215 228.284,47.477 228.938 C 48.885 232.443,51.494 238.165,53.225 241.543 C 55.476 245.935,55.968 246.845,58.041 250.438 C 58.338 250.953,58.739 251.656,58.931 252.000 C 59.124 252.344,59.605 253.131,60.001 253.750 C 60.398 254.369,61.066 255.452,61.487 256.158 C 61.909 256.864,62.421 257.581,62.627 257.751 C 62.832 257.922,63.000 258.165,63.000 258.291 C 63.000 258.418,63.450 259.130,64.000 259.875 C 64.550 260.620,65.000 261.296,65.000 261.379 C 65.000 261.462,65.321 261.945,65.713 262.452 C 66.105 262.960,67.252 264.500,68.261 265.875 C 70.026 268.278,73.631 272.810,75.023 274.375 C 75.390 274.788,76.779 276.363,78.111 277.875 C 79.443 279.387,82.621 282.683,85.174 285.199 L 89.814 289.772 91.776 286.449 C 92.855 284.621,93.851 282.900,93.991 282.625 C 94.130 282.350,95.249 280.438,96.477 278.375 C 97.705 276.313,99.815 272.734,101.167 270.422 C 102.519 268.110,103.808 265.916,104.031 265.547 C 104.254 265.177,105.427 263.188,106.637 261.125 C 109.942 255.493,113.573 249.319,114.031 248.554 C 114.254 248.181,115.427 246.188,116.637 244.125 C 119.942 238.493,123.573 232.319,124.031 231.554 C 124.254 231.181,125.427 229.188,126.637 227.125 C 129.823 221.697,133.561 215.340,134.030 214.554 C 134.253 214.181,135.587 211.906,136.996 209.500 C 138.404 207.094,139.797 204.724,140.091 204.233 C 140.385 203.743,141.300 202.187,142.125 200.775 C 142.950 199.364,143.807 197.909,144.030 197.542 C 144.253 197.175,145.587 194.906,146.996 192.500 C 148.404 190.094,149.797 187.724,150.091 187.233 C 150.385 186.743,151.300 185.187,152.125 183.775 C 152.950 182.364,153.807 180.909,154.029 180.542 C 154.251 180.175,155.246 178.469,156.241 176.750 C 157.236 175.031,158.244 173.344,158.480 173.000 C 158.716 172.656,159.178 171.893,159.506 171.304 L 160.102 170.232 155.791 165.916 L 151.480 161.600 151.558 141.488 C 151.644 119.377,151.562 120.593,153.187 117.375 C 156.367 111.082,160.367 109.250,170.928 109.250 L 177.500 109.250 177.500 92.527 C 177.500 77.508,177.540 75.788,177.895 75.652 C 178.410 75.454,216.450 75.460,217.188 75.658 C 217.707 75.797,217.750 75.951,217.750 77.659 C 217.750 79.093,217.898 79.861,218.405 81.067 L 219.060 82.625 219.009 94.896 C 218.975 103.178,219.048 107.498,219.233 108.186 L 219.507 109.206 225.816 109.302 C 234.032 109.428,235.957 110.099,239.750 114.161 C 243.794 118.492,243.750 118.195,243.750 141.505 L 243.750 160.886 242.375 162.364 C 241.619 163.176,241.000 163.933,241.000 164.046 C 241.000 164.158,240.857 164.250,240.682 164.250 C 240.508 164.250,239.399 165.234,238.220 166.438 L 236.075 168.625 236.141 170.762 L 236.206 172.898 238.512 176.762 C 241.620 181.970,244.162 186.262,247.242 191.500 C 248.656 193.906,250.290 196.662,250.871 197.625 C 251.453 198.588,253.224 201.569,254.807 204.250 C 256.390 206.931,258.873 211.133,260.325 213.588 L 262.965 218.051 264.670 215.883 C 267.734 211.986,271.612 206.255,273.214 203.259 C 273.804 202.155,276.168 197.411,276.581 196.500 C 280.492 187.888,283.415 176.217,283.968 167.000 L 284.125 164.375 299.688 164.311 L 315.250 164.246 315.247 165.436 C 315.225 173.582,312.686 187.777,309.535 197.375 C 308.556 200.355,308.369 200.876,307.160 204.004 C 302.860 215.133,295.841 226.976,287.905 236.500 C 285.724 239.117,281.286 244.010,280.696 244.448 C 280.404 244.665,280.273 245.075,280.298 245.698 C 280.318 246.208,280.287 246.745,280.230 246.891 C 280.172 247.037,281.130 248.837,282.357 250.891 C 283.585 252.945,285.619 256.369,286.878 258.500 C 290.396 264.459,297.318 276.174,299.950 280.625 C 301.251 282.825,303.208 286.144,304.300 288.000 C 305.391 289.856,306.377 291.470,306.490 291.585 C 306.929 292.034,316.005 283.386,320.878 277.875 C 322.216 276.363,323.610 274.788,323.977 274.375 C 325.369 272.810,328.974 268.278,330.739 265.875 C 331.748 264.500,332.895 262.960,333.287 262.452 C 333.679 261.945,334.000 261.462,334.000 261.379 C 334.000 261.296,334.450 260.620,335.000 259.875 C 335.550 259.130,336.000 258.418,336.000 258.291 C 336.000 258.165,336.168 257.922,336.373 257.751 C 336.579 257.581,337.091 256.864,337.513 256.158 C 337.934 255.452,338.602 254.369,338.999 253.750 C 339.395 253.131,339.876 252.344,340.069 252.000 C 340.261 251.656,340.662 250.953,340.959 250.438 C 343.032 246.845,343.524 245.935,345.775 241.543 C 347.506 238.165,350.115 232.443,351.523 228.938 C 351.785 228.284,352.215 227.216,352.479 226.563 C 352.922 225.463,353.181 224.765,354.474 221.188 C 354.954 219.861,356.637 214.490,357.510 211.500 C 362.183 195.499,364.674 172.875,363.514 156.967 C 363.350 154.716,363.121 151.577,363.006 149.990 C 362.603 144.436,360.737 132.941,359.488 128.318 C 359.220 127.324,359.000 126.319,359.000 126.086 C 359.000 125.852,358.783 124.921,358.517 124.018 C 358.252 123.114,357.790 121.475,357.490 120.375 C 356.974 118.479,356.689 117.532,355.629 114.196 C 355.379 113.410,355.080 112.825,354.965 112.897 C 354.850 112.968,354.824 112.847,354.908 112.629 C 355.111 112.101,354.280 109.952,353.952 110.155 C 353.789 110.255,353.761 110.110,353.874 109.754 C 354.064 109.156,353.326 107.173,352.991 107.380 C 352.887 107.445,352.734 107.320,352.651 107.103 C 352.424 106.512,352.476 106.326,352.750 106.750 C 353.124 107.328,353.044 106.667,352.617 105.645 C 352.381 105.079,352.126 104.797,351.950 104.906 C 351.755 105.027,351.722 104.933,351.847 104.608 C 352.039 104.108,351.048 101.250,350.683 101.250 C 350.573 101.250,350.599 101.468,350.741 101.734 C 350.884 102.000,350.999 102.365,350.998 102.546 C 350.996 102.727,350.707 102.256,350.355 101.500 C 350.003 100.744,349.342 99.563,348.886 98.875 C 348.017 97.564,344.950 92.350,343.667 90.000 C 342.942 88.673,340.777 85.055,339.629 83.250 C 339.322 82.769,338.296 81.139,337.348 79.628 C 335.759 77.094,329.625 68.287,329.249 68.000 C 329.160 67.931,328.257 66.806,327.243 65.500 C 309.846 43.077,282.828 22.866,258.250 13.890 C 257.769 13.714,255.969 13.056,254.250 12.427 C 234.803 5.311,214.281 2.191,192.250 3.000 M196.125 123.163 C 178.951 124.503,169.707 143.180,179.252 157.250 C 189.927 172.985,215.056 167.749,218.648 149.041 C 221.286 135.299,209.794 122.095,196.125 123.163 M205.498 199.151 C 196.820 207.876,197.743 207.823,189.908 200.045 C 187.099 197.256,184.755 195.110,184.699 195.277 C 184.644 195.443,184.241 195.569,183.804 195.556 C 183.366 195.544,182.953 195.623,182.885 195.733 C 182.818 195.843,182.478 195.901,182.130 195.863 C 181.782 195.825,181.554 195.885,181.622 195.996 C 181.691 196.107,181.563 196.268,181.338 196.355 C 181.113 196.441,180.994 196.577,181.074 196.657 C 181.154 196.738,181.006 197.033,180.744 197.314 C 180.482 197.596,180.326 197.921,180.398 198.038 C 180.471 198.155,180.428 198.250,180.304 198.250 C 180.180 198.250,179.864 198.672,179.602 199.188 C 179.340 199.703,179.061 200.181,178.984 200.250 C 178.690 200.510,176.250 204.706,176.250 204.951 C 176.250 205.093,176.161 205.246,176.052 205.292 C 175.797 205.399,173.250 209.649,173.250 209.967 C 173.250 210.100,173.161 210.246,173.052 210.292 C 172.797 210.399,170.250 214.649,170.250 214.967 C 170.250 215.100,170.158 215.246,170.045 215.292 C 169.807 215.389,167.250 219.698,167.250 220.003 C 167.250 220.116,167.158 220.246,167.045 220.292 C 166.807 220.389,164.250 224.698,164.250 225.003 C 164.250 225.116,164.158 225.246,164.045 225.292 C 163.807 225.389,161.250 229.698,161.250 230.003 C 161.250 230.116,161.158 230.246,161.045 230.292 C 160.797 230.393,158.250 234.704,158.250 235.023 C 158.250 235.148,158.162 235.250,158.054 235.250 C 157.946 235.250,157.524 235.897,157.116 236.688 C 156.709 237.478,156.290 238.163,156.186 238.209 C 156.082 238.255,156.060 238.396,156.138 238.521 C 156.216 238.647,156.160 238.750,156.015 238.750 C 155.109 238.750,156.079 239.580,158.057 240.500 C 176.128 248.896,196.603 250.951,216.250 246.342 C 224.830 244.330,238.686 238.731,238.011 237.550 C 237.877 237.316,235.019 232.569,231.658 227.000 C 228.298 221.431,222.528 211.852,218.837 205.712 C 215.145 199.573,212.050 194.596,211.958 194.652 C 211.866 194.708,211.621 194.585,211.413 194.377 C 210.820 193.785,210.892 193.727,205.498 199.151 M251.375 266.014 C 218.897 283.442,177.748 284.249,144.079 268.120 C 141.990 267.120,140.219 266.365,140.141 266.442 C 140.063 266.520,140.000 266.448,140.000 266.283 C 140.000 266.058,139.872 266.051,139.493 266.254 C 139.214 266.403,139.052 266.632,139.133 266.763 C 139.213 266.893,139.178 267.000,139.055 267.000 C 138.931 267.000,138.703 267.253,138.549 267.563 C 138.262 268.134,137.856 268.825,135.625 272.536 C 134.938 273.679,134.262 274.811,134.125 275.052 C 133.988 275.292,129.938 282.037,125.125 290.041 C 120.313 298.045,116.339 304.798,116.295 305.047 C 116.251 305.296,116.092 305.500,115.941 305.500 C 115.790 305.500,115.734 305.568,115.817 305.651 C 115.900 305.734,115.871 306.057,115.752 306.369 C 115.611 306.740,115.639 307.040,115.831 307.235 C 116.057 307.465,116.020 307.611,115.673 307.868 C 115.249 308.180,115.274 308.242,116.048 308.820 C 118.671 310.779,127.530 315.537,132.931 317.888 C 134.413 318.533,136.075 319.268,136.625 319.521 C 137.600 319.969,141.865 321.619,144.375 322.518 C 145.063 322.764,146.244 323.188,147.000 323.461 C 172.579 332.672,206.476 334.615,234.125 328.455 C 239.312 327.299,246.239 325.440,248.625 324.564 C 249.175 324.362,250.131 324.052,250.750 323.876 C 251.369 323.700,252.269 323.413,252.750 323.238 C 253.231 323.062,254.244 322.698,255.000 322.429 C 256.322 321.959,257.382 321.549,259.938 320.523 C 266.738 317.791,278.320 312.111,280.978 310.204 C 281.564 309.783,281.564 309.781,281.095 309.009 C 279.912 307.060,272.060 294.057,265.616 283.375 C 261.717 276.913,257.593 270.023,256.451 268.065 C 255.309 266.106,254.319 264.512,254.250 264.521 C 254.181 264.531,252.887 265.202,251.375 266.014 " stroke="none" fill="#98c562" fill-rule="evenodd"></path><path id="path2" d="M177.500 92.500 C 177.500 105.800,177.435 109.250,177.185 109.250 C 177.012 109.250,176.740 109.458,176.581 109.713 C 176.317 110.135,175.773 110.188,170.334 110.319 C 158.936 110.593,154.447 112.976,152.096 120.000 C 151.667 121.282,151.631 122.742,151.558 141.489 L 151.480 161.604 167.303 177.432 L 183.125 193.261 182.270 194.818 C 181.800 195.674,181.598 196.225,181.822 196.041 C 182.045 195.857,182.338 195.775,182.472 195.858 C 182.606 195.940,182.781 195.901,182.862 195.771 C 182.943 195.640,183.366 195.544,183.804 195.556 C 184.241 195.569,184.644 195.443,184.699 195.277 C 184.755 195.110,187.099 197.256,189.908 200.045 C 197.743 207.823,196.820 207.876,205.498 199.151 C 210.904 193.715,210.819 193.783,211.423 194.387 C 212.001 194.965,212.131 194.612,211.625 193.839 L 211.181 193.163 222.850 181.545 L 234.518 169.927 235.383 171.276 L 236.248 172.625 236.150 170.625 L 236.052 168.625 238.208 166.438 C 239.394 165.234,240.508 164.250,240.682 164.250 C 240.857 164.250,241.000 164.158,241.000 164.046 C 241.000 163.933,241.619 163.176,242.375 162.364 L 243.750 160.886 243.750 141.505 C 243.750 123.085,243.726 122.039,243.266 120.431 C 241.207 113.230,236.439 110.563,225.250 110.350 C 219.097 110.234,218.624 110.184,218.410 109.627 C 218.304 109.351,218.438 109.250,218.910 109.250 C 219.438 109.250,219.515 109.171,219.339 108.813 C 219.221 108.572,219.115 102.624,219.102 95.596 L 219.080 82.816 218.415 81.156 C 217.902 79.875,217.750 79.067,217.750 77.622 C 217.750 75.579,217.684 75.511,216.423 76.255 C 215.182 76.987,179.382 76.923,178.569 76.188 C 177.483 75.204,177.500 74.939,177.500 92.500 M201.250 123.547 C 218.015 126.353,224.573 146.303,213.208 159.923 C 212.612 160.637,211.927 161.502,211.686 161.847 C 207.877 167.281,196.119 169.416,188.651 166.030 C 186.095 164.871,182.250 161.956,182.250 161.177 C 182.250 161.058,181.704 160.323,181.038 159.543 C 167.387 143.580,180.580 120.086,201.250 123.547 M279.765 245.357 C 279.428 245.764,279.589 246.555,280.094 246.975 C 280.353 247.190,280.406 247.037,280.354 246.225 C 280.277 245.016,280.174 244.864,279.765 245.357 M310.140 289.087 C 309.185 289.933,308.495 290.456,308.606 290.250 C 308.717 290.044,308.454 290.269,308.021 290.750 C 307.588 291.231,307.136 291.600,307.015 291.570 C 306.723 291.497,306.826 292.115,307.177 292.537 C 307.331 292.723,307.466 292.988,307.477 293.125 C 307.487 293.262,307.656 293.562,307.852 293.791 C 308.048 294.020,308.143 294.274,308.063 294.354 C 307.982 294.434,308.048 294.500,308.208 294.500 C 308.369 294.500,308.500 294.655,308.500 294.844 C 308.500 295.034,308.671 295.331,308.881 295.505 C 309.091 295.679,309.206 295.877,309.138 295.945 C 309.070 296.013,309.264 296.419,309.569 296.847 C 309.875 297.275,310.125 297.681,310.125 297.750 C 310.125 297.819,310.379 298.230,310.688 298.664 C 310.997 299.097,311.250 299.537,311.250 299.640 C 311.250 299.743,311.531 300.197,311.875 300.647 C 312.219 301.098,312.500 301.569,312.500 301.695 C 312.500 301.821,312.725 302.183,313.000 302.500 C 313.275 302.817,313.500 303.214,313.500 303.383 C 313.500 303.551,313.668 303.828,313.872 303.998 C 314.077 304.168,314.183 304.406,314.107 304.528 C 314.032 304.650,314.064 304.750,314.178 304.750 C 314.293 304.750,314.608 305.172,314.878 305.688 C 315.149 306.203,315.428 306.681,315.498 306.750 C 315.760 307.007,316.266 307.898,316.528 308.563 C 316.677 308.941,316.907 309.250,317.039 309.250 C 317.171 309.250,317.210 309.363,317.125 309.500 C 317.040 309.637,317.090 309.750,317.235 309.750 C 317.381 309.750,317.500 309.905,317.500 310.094 C 317.500 310.284,317.668 310.578,317.872 310.748 C 318.077 310.918,318.183 311.156,318.107 311.278 C 318.032 311.400,318.090 311.500,318.236 311.500 C 318.382 311.500,318.696 311.950,318.935 312.500 C 319.173 313.050,319.454 313.500,319.559 313.500 C 319.664 313.500,319.750 313.655,319.750 313.844 C 319.750 314.034,319.918 314.328,320.122 314.498 C 320.327 314.668,320.443 314.889,320.381 314.990 C 320.318 315.092,320.482 315.404,320.744 315.686 C 321.006 315.967,321.152 316.265,321.068 316.348 C 320.985 316.432,321.048 316.500,321.208 316.500 C 321.369 316.500,321.500 316.655,321.500 316.844 C 321.500 317.034,321.671 317.331,321.881 317.505 C 322.091 317.679,322.204 317.880,322.132 317.951 C 322.061 318.023,322.289 318.456,322.639 318.915 C 322.989 319.374,323.204 319.750,323.117 319.750 C 323.029 319.750,323.292 320.172,323.700 320.688 C 324.109 321.203,324.445 321.681,324.448 321.750 C 324.462 322.072,325.101 323.250,325.261 323.250 C 325.360 323.250,325.514 323.447,325.602 323.688 C 325.690 323.928,326.012 324.536,326.318 325.038 C 327.549 327.056,328.250 328.324,328.250 328.531 C 328.250 328.652,328.363 328.750,328.500 328.750 C 328.637 328.750,328.750 328.882,328.750 329.043 C 328.750 329.204,328.936 329.541,329.164 329.793 C 329.605 330.280,329.872 361.909,329.441 362.586 C 329.307 362.797,329.257 362.791,329.254 362.562 C 329.252 362.391,329.166 362.274,329.063 362.304 C 328.959 362.333,328.381 362.024,327.777 361.616 C 327.173 361.209,326.470 360.753,326.216 360.603 C 325.962 360.453,325.547 360.144,325.295 359.915 C 325.042 359.687,324.704 359.500,324.543 359.500 C 324.382 359.500,324.250 359.401,324.250 359.280 C 324.250 359.160,323.913 358.921,323.500 358.750 C 323.087 358.579,322.750 358.334,322.750 358.205 C 322.750 358.076,322.637 358.040,322.500 358.125 C 322.363 358.210,322.250 358.160,322.250 358.015 C 322.250 357.869,322.093 357.750,321.902 357.750 C 321.710 357.750,321.483 357.565,321.396 357.339 C 321.309 357.113,321.171 356.995,321.089 357.077 C 321.007 357.159,320.789 357.091,320.604 356.926 C 319.801 356.208,319.547 356.037,319.442 356.142 C 319.380 356.203,319.126 356.027,318.876 355.752 C 318.627 355.476,318.289 355.250,318.125 355.250 C 317.961 355.250,317.626 355.028,317.380 354.756 C 317.134 354.484,316.853 354.311,316.754 354.372 C 316.656 354.433,316.338 354.262,316.048 353.991 C 315.758 353.721,315.421 353.500,315.299 353.500 C 315.177 353.500,314.874 353.275,314.625 353.000 C 314.376 352.725,314.031 352.500,313.857 352.500 C 313.684 352.500,313.504 352.416,313.458 352.313 C 313.341 352.049,311.312 350.750,311.018 350.750 C 310.884 350.750,310.660 350.553,310.520 350.313 C 310.380 350.072,310.262 349.964,310.258 350.073 C 310.253 350.181,309.948 349.990,309.579 349.648 C 309.211 349.307,308.817 349.084,308.704 349.153 C 308.592 349.223,308.500 349.160,308.500 349.015 C 308.500 348.869,308.331 348.750,308.125 348.750 C 307.919 348.750,307.750 348.637,307.750 348.500 C 307.750 348.363,307.599 348.250,307.414 348.250 C 307.229 348.250,306.876 348.028,306.630 347.756 C 306.384 347.484,306.101 347.313,306.000 347.375 C 305.899 347.437,305.616 347.266,305.370 346.994 C 305.124 346.722,304.779 346.500,304.604 346.500 C 304.429 346.500,304.137 346.353,303.955 346.174 C 303.774 345.994,303.421 345.770,303.172 345.675 C 302.922 345.581,302.781 345.402,302.858 345.278 C 302.934 345.154,302.835 344.990,302.637 344.914 C 302.288 344.780,301.352 343.250,301.619 343.250 C 301.691 343.250,301.521 343.021,301.241 342.741 C 300.961 342.461,300.791 342.135,300.864 342.017 C 300.937 341.899,300.822 341.735,300.608 341.653 C 300.394 341.571,300.281 341.402,300.358 341.278 C 300.434 341.154,300.317 340.983,300.098 340.899 C 299.872 340.813,299.760 340.585,299.840 340.377 C 299.924 340.158,299.772 339.896,299.469 339.734 C 299.188 339.583,299.014 339.403,299.083 339.334 C 299.152 339.264,299.048 339.020,298.852 338.791 C 298.656 338.562,298.501 338.287,298.507 338.179 C 298.513 338.071,298.344 337.808,298.132 337.596 C 297.919 337.383,297.802 337.118,297.871 337.006 C 297.940 336.894,297.813 336.732,297.588 336.645 C 297.363 336.559,297.241 336.425,297.318 336.348 C 297.395 336.271,297.239 335.989,296.970 335.720 C 296.701 335.451,296.541 335.135,296.614 335.017 C 296.687 334.899,296.563 334.732,296.338 334.645 C 296.113 334.559,295.992 334.425,296.069 334.348 C 296.146 334.271,296.048 334.020,295.852 333.791 C 295.656 333.562,295.477 333.262,295.453 333.125 C 295.430 332.988,295.261 332.725,295.078 332.542 C 294.895 332.359,294.809 332.106,294.887 331.980 C 294.966 331.853,294.907 331.750,294.757 331.750 C 294.607 331.750,294.410 331.553,294.319 331.313 C 294.228 331.072,294.005 330.725,293.824 330.542 C 293.643 330.359,293.552 330.118,293.621 330.006 C 293.690 329.894,293.563 329.732,293.338 329.645 C 293.113 329.559,292.992 329.425,293.069 329.348 C 293.146 329.271,293.021 328.989,292.792 328.721 C 292.563 328.453,292.381 328.153,292.389 328.054 C 292.397 327.956,292.204 327.661,291.960 327.400 C 291.717 327.138,291.569 326.841,291.632 326.738 C 291.695 326.636,291.563 326.482,291.338 326.395 C 291.113 326.309,290.994 326.173,291.074 326.093 C 291.154 326.012,291.006 325.717,290.744 325.436 C 290.482 325.154,290.326 324.829,290.398 324.712 C 290.471 324.595,290.404 324.500,290.250 324.500 C 290.096 324.500,290.040 324.387,290.125 324.250 C 290.210 324.113,290.154 324.000,290.000 324.000 C 289.846 324.000,289.783 323.899,289.859 323.776 C 289.935 323.653,289.813 323.482,289.588 323.395 C 289.363 323.309,289.244 323.173,289.324 323.093 C 289.404 323.012,289.256 322.717,288.994 322.436 C 288.732 322.154,288.569 321.841,288.632 321.738 C 288.695 321.636,288.563 321.482,288.338 321.395 C 288.113 321.309,287.992 321.175,288.069 321.098 C 288.146 321.021,288.048 320.770,287.852 320.541 C 287.656 320.312,287.501 320.037,287.507 319.929 C 287.513 319.821,287.344 319.558,287.132 319.346 C 286.919 319.133,286.802 318.868,286.871 318.756 C 286.940 318.644,286.829 318.488,286.624 318.409 C 286.418 318.330,286.250 318.142,286.250 317.990 C 286.250 317.838,286.080 317.545,285.873 317.337 C 285.665 317.129,285.552 316.868,285.621 316.756 C 285.690 316.644,285.563 316.482,285.338 316.395 C 285.113 316.309,284.992 316.175,285.069 316.098 C 285.146 316.021,285.048 315.770,284.852 315.541 C 284.656 315.312,284.506 315.025,284.519 314.903 C 284.532 314.781,284.446 314.612,284.328 314.528 C 283.990 314.287,283.133 312.895,283.194 312.688 C 283.225 312.584,283.156 312.500,283.040 312.500 C 282.847 312.500,282.153 311.230,282.243 311.044 C 282.294 310.939,281.216 310.000,281.045 310.000 C 280.974 310.000,280.993 310.076,281.086 310.169 C 281.248 310.331,278.837 311.978,277.938 312.319 C 277.485 312.490,277.343 313.124,277.708 313.349 C 277.878 313.454,278.872 315.055,280.625 318.048 C 280.762 318.282,281.606 319.662,282.500 321.114 C 283.394 322.565,284.238 323.950,284.375 324.191 C 284.512 324.432,285.188 325.559,285.875 326.695 C 286.563 327.830,287.238 328.955,287.375 329.195 C 287.668 329.704,289.902 333.412,290.625 334.590 C 290.900 335.038,291.451 335.960,291.849 336.640 C 292.247 337.319,292.823 338.269,293.129 338.750 C 293.435 339.231,294.113 340.356,294.635 341.250 C 295.158 342.144,295.833 343.269,296.135 343.750 C 296.438 344.231,297.113 345.356,297.636 346.250 C 300.788 351.635,301.311 352.207,305.750 355.108 C 310.342 358.110,312.302 359.387,315.250 361.295 C 316.831 362.319,318.448 363.375,318.844 363.641 C 321.020 365.106,320.200 364.997,329.058 364.999 L 337.240 365.000 337.380 364.438 C 337.457 364.128,337.487 356.675,337.446 347.875 C 337.361 329.702,337.393 329.955,334.731 326.000 C 334.377 325.474,333.634 324.228,331.674 320.875 C 331.514 320.600,330.959 319.675,330.441 318.819 C 329.924 317.963,329.500 317.199,329.500 317.121 C 329.500 317.043,329.290 316.675,329.032 316.302 C 328.589 315.660,325.765 310.927,325.500 310.382 C 325.280 309.929,322.444 305.148,322.011 304.500 C 321.781 304.156,320.982 302.830,320.234 301.553 C 318.780 299.069,318.819 299.137,317.500 296.875 C 317.019 296.050,316.512 295.193,316.375 294.971 C 316.238 294.749,315.883 294.131,315.587 293.596 C 315.292 293.062,314.586 291.894,314.020 291.000 C 313.454 290.106,312.825 289.017,312.624 288.580 C 312.083 287.405,312.025 287.417,310.140 289.087 M86.630 290.563 C 85.975 291.697,85.228 292.930,84.970 293.302 C 84.711 293.675,84.500 294.039,84.500 294.110 C 84.500 294.182,84.050 294.976,83.500 295.875 C 82.950 296.774,82.500 297.568,82.500 297.640 C 82.500 297.711,82.290 298.075,82.032 298.448 C 81.572 299.115,78.743 303.861,78.500 304.375 C 78.257 304.889,75.428 309.635,74.968 310.302 C 74.710 310.675,74.500 311.039,74.500 311.110 C 74.500 311.182,74.050 311.976,73.500 312.875 C 72.950 313.774,72.500 314.568,72.500 314.640 C 72.500 314.711,72.290 315.075,72.034 315.448 C 71.620 316.048,69.677 319.305,68.498 321.375 C 68.263 321.788,67.431 323.194,66.650 324.500 C 62.716 331.080,62.746 330.895,62.764 348.982 C 62.772 356.623,62.859 363.325,62.956 363.875 L 63.133 364.875 71.305 364.941 L 79.476 365.007 80.550 364.280 C 81.141 363.881,83.031 362.643,84.750 361.530 C 86.469 360.417,88.213 359.269,88.625 358.981 C 89.037 358.692,89.881 358.129,90.500 357.730 C 91.119 357.330,91.844 356.862,92.111 356.689 C 95.816 354.292,97.807 352.856,98.666 351.961 C 99.694 350.889,99.937 350.525,102.347 346.444 C 103.019 345.306,103.820 343.981,104.127 343.500 C 104.434 343.019,105.113 341.894,105.635 341.000 C 106.158 340.106,106.833 338.981,107.135 338.500 C 107.438 338.019,108.113 336.894,108.635 336.000 C 109.158 335.106,109.833 333.981,110.135 333.500 C 110.438 333.019,111.113 331.894,111.635 331.000 C 112.158 330.106,112.833 328.981,113.135 328.500 C 113.438 328.019,114.113 326.894,114.635 326.000 C 115.158 325.106,115.833 323.981,116.135 323.500 C 116.438 323.019,117.113 321.894,117.635 321.000 C 118.158 320.106,118.833 318.981,119.135 318.500 C 120.663 316.070,121.500 314.585,121.500 314.308 C 121.500 313.879,121.480 313.873,123.929 315.104 C 125.137 315.711,127.025 316.615,128.125 317.113 C 129.225 317.612,130.463 318.176,130.875 318.368 C 132.596 319.168,135.966 320.576,137.853 321.282 C 138.965 321.699,140.381 322.241,141.000 322.487 C 142.274 322.994,150.658 325.666,153.500 326.471 C 158.023 327.751,167.847 329.853,170.500 330.107 C 171.914 330.243,170.148 329.798,166.068 328.992 C 165.212 328.823,164.553 328.615,164.605 328.530 C 164.656 328.445,164.186 328.351,163.561 328.322 C 162.936 328.292,161.570 328.032,160.525 327.744 C 159.480 327.455,157.781 326.987,156.750 326.703 C 155.719 326.420,154.206 325.977,153.389 325.719 C 152.572 325.461,151.693 325.250,151.437 325.250 C 151.180 325.250,151.034 325.148,151.111 325.023 C 151.188 324.899,151.008 324.860,150.711 324.938 C 150.371 325.027,150.231 324.982,150.333 324.818 C 150.422 324.674,150.355 324.561,150.185 324.568 C 149.329 324.598,148.983 324.479,149.149 324.211 C 149.261 324.030,149.217 323.991,149.033 324.105 C 148.604 324.370,147.212 324.014,147.411 323.691 C 147.503 323.543,147.468 323.490,147.334 323.573 C 146.981 323.792,144.945 323.142,145.178 322.886 C 145.287 322.767,145.246 322.744,145.088 322.834 C 144.756 323.024,143.166 322.417,143.396 322.188 C 143.480 322.103,143.313 322.096,143.025 322.171 C 142.736 322.247,142.500 322.207,142.500 322.083 C 142.500 321.959,142.303 321.844,142.063 321.828 C 141.391 321.784,139.727 321.106,139.889 320.944 C 139.969 320.865,139.885 320.817,139.704 320.837 C 139.075 320.909,135.744 319.461,135.913 319.189 C 136.013 319.027,135.958 318.996,135.772 319.111 C 135.458 319.306,130.327 317.172,129.875 316.659 C 129.738 316.503,129.400 316.337,129.125 316.290 C 128.850 316.243,128.587 316.101,128.541 315.976 C 128.495 315.850,128.359 315.808,128.238 315.883 C 128.117 315.957,127.810 315.810,127.556 315.556 C 127.302 315.302,126.960 315.138,126.797 315.193 C 126.634 315.247,126.500 315.170,126.500 315.021 C 126.500 314.872,126.416 314.763,126.313 314.780 C 125.788 314.862,125.490 314.719,125.649 314.461 C 125.747 314.303,125.724 314.236,125.599 314.314 C 125.280 314.511,123.750 313.835,123.750 313.497 C 123.750 313.345,123.647 313.284,123.520 313.363 C 123.394 313.441,123.126 313.340,122.925 313.139 C 122.724 312.938,122.490 312.843,122.405 312.929 C 122.320 313.014,122.250 312.945,122.250 312.777 C 122.250 312.608,122.137 312.541,121.998 312.626 C 121.860 312.712,121.679 312.606,121.597 312.392 C 121.515 312.178,121.347 312.065,121.224 312.141 C 121.101 312.217,121.000 312.154,121.000 312.000 C 121.000 311.846,120.888 311.790,120.750 311.875 C 120.612 311.960,120.500 311.904,120.500 311.750 C 120.500 311.596,120.387 311.541,120.248 311.626 C 120.110 311.712,119.929 311.606,119.847 311.392 C 119.765 311.178,119.597 311.065,119.474 311.141 C 119.351 311.217,119.250 311.185,119.250 311.069 C 119.250 310.743,117.846 309.990,117.620 310.194 C 117.510 310.294,117.501 310.234,117.600 310.063 C 117.699 309.891,117.677 309.750,117.552 309.750 C 116.772 309.750,115.217 308.204,115.665 307.874 C 116.018 307.612,116.057 307.465,115.831 307.235 C 115.633 307.035,115.611 306.742,115.762 306.343 C 115.886 306.017,115.950 305.750,115.904 305.750 C 115.762 305.750,112.907 310.347,111.125 313.445 C 110.987 313.684,110.313 314.809,109.625 315.945 C 108.938 317.080,108.263 318.205,108.125 318.445 C 107.987 318.684,107.313 319.809,106.625 320.945 C 105.938 322.080,105.263 323.205,105.125 323.445 C 104.885 323.862,102.986 327.019,101.814 328.950 C 101.505 329.459,100.852 330.550,100.363 331.375 C 99.874 332.200,99.199 333.325,98.863 333.875 C 98.527 334.425,97.852 335.550,97.363 336.375 C 96.874 337.200,96.199 338.325,95.863 338.875 C 95.527 339.425,94.854 340.550,94.366 341.375 C 93.320 343.145,93.048 343.591,92.354 344.679 C 92.018 345.205,90.375 346.440,87.729 348.156 C 85.472 349.620,81.206 352.412,78.250 354.360 C 71.566 358.764,71.841 358.580,70.554 359.492 C 69.964 359.909,69.402 360.252,69.304 360.254 C 69.205 360.257,68.860 360.538,68.537 360.878 C 68.214 361.219,67.848 361.436,67.725 361.359 C 67.601 361.283,67.500 361.341,67.500 361.489 C 67.500 361.829,65.980 362.767,65.705 362.597 C 65.592 362.528,65.500 355.249,65.501 346.423 L 65.502 330.375 66.053 329.500 C 66.356 329.019,66.729 328.400,66.883 328.125 C 68.129 325.888,68.629 325.218,68.882 325.446 C 68.991 325.544,69.006 325.495,68.914 325.335 C 68.677 324.920,68.999 324.222,69.339 324.417 C 69.496 324.507,69.545 324.492,69.448 324.384 C 69.281 324.199,69.688 323.317,70.721 321.625 C 70.973 321.212,71.448 320.412,71.777 319.847 C 74.401 315.338,76.466 311.819,76.943 311.046 C 77.255 310.539,77.584 309.956,77.673 309.750 C 77.988 309.022,78.686 308.269,78.882 308.446 C 78.991 308.544,79.006 308.495,78.914 308.335 C 78.677 307.920,78.999 307.222,79.339 307.417 C 79.496 307.507,79.545 307.492,79.448 307.384 C 79.281 307.199,79.689 306.315,80.721 304.625 C 80.973 304.212,81.406 303.481,81.682 303.000 C 84.176 298.665,85.306 296.885,85.527 296.944 C 85.670 296.981,85.718 296.900,85.633 296.764 C 85.479 296.513,85.738 295.966,86.887 294.125 C 87.230 293.575,87.584 292.956,87.673 292.750 C 87.988 292.022,88.686 291.269,88.882 291.446 C 88.991 291.544,89.006 291.495,88.914 291.335 C 88.716 290.988,88.975 290.205,89.235 290.365 C 89.728 290.670,89.333 289.581,88.771 289.085 C 87.887 288.306,87.964 288.253,86.630 290.563 M172.750 330.510 C 173.231 330.624,174.356 330.779,175.250 330.853 L 176.875 330.987 175.250 330.634 C 174.356 330.440,173.231 330.285,172.750 330.291 L 171.875 330.301 172.750 330.510 " stroke="none" fill="#7c7d7c" fill-rule="evenodd"></path><path id="path3" d="M186.000 0.127 C 185.794 0.172,183.881 0.395,181.750 0.622 C 173.326 1.520,164.411 3.224,156.000 5.542 C 151.279 6.844,144.327 9.178,139.813 10.977 C 139.091 11.265,137.966 11.710,137.313 11.966 C 135.996 12.483,131.786 14.341,131.078 14.717 C 130.829 14.850,129.050 15.736,127.125 16.687 C 123.829 18.315,120.456 20.089,118.962 20.980 C 118.598 21.197,117.538 21.825,116.607 22.375 C 113.879 23.987,113.680 24.107,112.500 24.854 C 106.391 28.723,97.424 35.348,93.500 38.890 C 93.019 39.324,91.449 40.736,90.011 42.027 C 86.975 44.754,81.412 50.250,81.687 50.250 C 81.790 50.250,81.568 50.515,81.192 50.838 C 80.816 51.161,80.582 51.499,80.671 51.588 C 80.760 51.677,80.646 51.750,80.417 51.750 C 80.187 51.750,80.000 51.925,80.000 52.140 C 80.000 52.354,79.885 52.458,79.744 52.371 C 79.603 52.284,79.519 52.362,79.556 52.544 C 79.594 52.726,79.503 52.853,79.354 52.826 C 79.205 52.800,79.083 52.948,79.083 53.155 C 79.083 53.363,80.161 52.478,81.479 51.189 C 82.797 49.900,84.887 47.952,86.123 46.860 C 87.360 45.768,88.766 44.519,89.248 44.085 C 89.731 43.650,90.969 42.596,92.000 41.743 C 93.031 40.889,94.188 39.919,94.571 39.586 C 95.197 39.042,97.441 37.292,99.394 35.826 C 105.788 31.023,112.183 26.771,118.125 23.371 C 138.914 11.477,160.878 4.639,186.125 2.203 C 190.466 1.784,208.534 1.784,212.875 2.203 C 238.122 4.639,260.086 11.477,280.875 23.371 C 286.817 26.771,293.212 31.023,299.606 35.826 C 301.559 37.292,303.803 39.042,304.429 39.586 C 304.812 39.919,305.969 40.889,307.000 41.743 C 308.031 42.596,309.269 43.650,309.752 44.085 C 310.234 44.519,311.640 45.768,312.877 46.860 C 314.113 47.952,316.203 49.900,317.521 51.189 C 318.839 52.478,319.917 53.363,319.917 53.155 C 319.917 52.948,319.795 52.800,319.646 52.826 C 319.497 52.853,319.406 52.726,319.444 52.544 C 319.481 52.362,319.397 52.284,319.256 52.371 C 319.115 52.458,319.000 52.354,319.000 52.140 C 319.000 51.925,318.825 51.750,318.610 51.750 C 318.396 51.750,318.290 51.637,318.375 51.500 C 318.460 51.362,318.410 51.250,318.265 51.250 C 318.119 51.250,318.000 51.081,318.000 50.875 C 318.000 50.669,317.916 50.528,317.812 50.563 C 317.709 50.597,317.569 50.513,317.500 50.375 C 317.281 49.937,311.698 44.461,308.989 42.027 C 307.551 40.736,305.981 39.324,305.500 38.890 C 301.576 35.348,292.609 28.723,286.500 24.854 C 285.320 24.107,285.121 23.987,282.393 22.375 C 281.462 21.825,280.402 21.197,280.038 20.980 C 278.544 20.089,275.171 18.315,271.875 16.687 C 269.950 15.736,268.171 14.850,267.922 14.717 C 267.214 14.341,263.004 12.483,261.688 11.966 C 261.034 11.710,259.909 11.265,259.188 10.977 C 254.673 9.178,247.721 6.844,243.000 5.542 C 235.019 3.342,227.510 1.880,217.500 0.577 C 214.441 0.179,187.516 -0.206,186.000 0.127 M178.580 76.188 C 179.607 77.214,217.000 76.904,217.000 75.869 C 217.000 75.803,208.257 75.750,197.571 75.750 C 179.068 75.750,178.164 75.771,178.580 76.188 M163.080 109.626 C 161.210 110.032,158.552 111.319,157.211 112.466 C 155.803 113.671,156.153 113.680,158.504 112.498 C 161.926 110.778,163.512 110.484,170.250 110.325 C 175.710 110.196,176.750 110.059,176.750 109.469 C 176.750 109.105,164.847 109.242,163.080 109.626 M218.410 109.627 C 218.624 110.184,219.097 110.234,225.250 110.350 C 231.714 110.473,233.312 110.772,236.746 112.498 C 239.202 113.733,239.522 113.661,237.699 112.284 C 234.356 109.760,232.128 109.260,224.195 109.254 C 219.011 109.251,218.284 109.297,218.410 109.627 M182.250 161.207 C 182.250 161.959,186.145 164.894,188.651 166.030 C 196.284 169.491,208.353 167.148,211.975 161.502 L 212.375 160.879 211.625 161.445 C 209.723 162.882,208.679 163.549,207.070 164.357 C 199.667 168.072,190.467 167.239,183.886 162.258 C 182.986 161.577,182.250 161.104,182.250 161.207 M291.938 164.437 C 296.234 164.476,303.266 164.476,307.563 164.437 C 311.859 164.399,308.344 164.368,299.750 164.368 C 291.156 164.368,287.641 164.399,291.938 164.437 M315.063 166.375 C 315.066 166.925,315.117 167.121,315.177 166.810 C 315.237 166.499,315.234 166.049,315.172 165.810 C 315.109 165.571,315.060 165.825,315.063 166.375 M222.744 181.648 L 211.300 193.045 212.088 194.378 L 212.875 195.710 223.182 185.418 C 231.834 176.778,233.691 175.041,234.745 174.604 C 235.436 174.317,236.074 174.009,236.165 173.919 C 236.255 173.828,236.486 173.884,236.677 174.043 C 236.868 174.202,236.485 173.416,235.825 172.297 C 235.165 171.178,234.526 170.260,234.406 170.256 C 234.286 170.253,229.038 175.379,222.744 181.648 M280.868 244.063 L 279.125 245.875 280.938 244.132 C 282.621 242.513,282.864 242.250,282.681 242.250 C 282.643 242.250,281.827 243.066,280.868 244.063 M276.852 248.035 C 269.863 254.423,256.228 264.250,254.357 264.250 C 254.177 264.250,253.961 264.361,253.877 264.497 C 253.793 264.633,253.878 264.685,254.067 264.613 C 254.288 264.528,254.653 264.928,255.096 265.740 C 255.728 266.902,256.230 267.459,255.922 266.658 C 255.834 266.429,256.133 266.207,256.833 265.982 C 257.406 265.798,258.156 265.459,258.500 265.230 C 258.844 265.001,260.587 263.888,262.375 262.756 C 267.833 259.300,272.094 256.142,276.188 252.519 C 277.459 251.393,278.500 250.537,278.500 250.617 C 278.500 250.696,278.767 250.586,279.094 250.372 C 280.036 249.755,281.154 249.507,281.505 249.837 C 281.746 250.064,281.749 250.005,281.522 249.563 C 281.363 249.253,281.124 249.000,280.991 249.000 C 280.859 249.000,280.778 248.901,280.813 248.780 C 280.888 248.516,279.462 246.000,279.237 246.000 C 279.151 246.000,278.078 246.916,276.852 248.035 M193.813 248.935 C 194.741 248.983,196.259 248.983,197.188 248.935 C 198.116 248.887,197.356 248.848,195.500 248.848 C 193.644 248.848,192.884 248.887,193.813 248.935 M187.188 279.426 C 187.497 279.486,188.003 279.486,188.313 279.426 C 188.622 279.367,188.369 279.318,187.750 279.318 C 187.131 279.318,186.878 279.367,187.188 279.426 M202.816 279.429 C 203.196 279.487,203.758 279.485,204.066 279.426 C 204.373 279.367,204.063 279.320,203.375 279.322 C 202.688 279.323,202.436 279.372,202.816 279.429 M193.325 279.686 C 194.535 279.732,196.447 279.732,197.575 279.686 C 198.702 279.640,197.713 279.602,195.375 279.602 C 193.037 279.603,192.115 279.640,193.325 279.686 " stroke="none" fill="#b4ca9a" fill-rule="evenodd"></path><path id="path4" d="M191.000 1.901 C 165.224 3.337,140.312 10.677,118.125 23.371 C 112.183 26.771,105.788 31.023,99.394 35.826 C 97.441 37.292,95.197 39.042,94.571 39.586 C 94.188 39.919,93.031 40.889,92.000 41.743 C 90.969 42.596,89.731 43.650,89.248 44.085 C 88.766 44.519,87.360 45.768,86.123 46.860 C 84.887 47.952,82.763 49.921,81.404 51.235 C 80.045 52.550,79.011 53.484,79.106 53.313 C 79.202 53.141,79.174 53.000,79.045 53.000 C 78.735 53.000,78.214 53.641,78.304 53.911 C 78.343 54.029,78.280 54.142,78.164 54.163 C 77.698 54.247,76.496 55.628,76.616 55.941 C 76.686 56.125,76.642 56.213,76.518 56.136 C 76.394 56.059,75.748 56.639,75.083 57.424 C 74.419 58.210,73.673 59.082,73.426 59.364 C 72.688 60.203,72.391 60.570,71.489 61.750 C 71.016 62.369,70.541 62.987,70.434 63.125 C 70.327 63.263,69.514 64.331,68.628 65.500 C 67.742 66.669,66.802 67.907,66.539 68.252 C 65.938 69.042,60.769 76.825,60.065 78.000 C 56.209 84.439,53.195 90.062,50.885 95.125 C 50.384 96.225,49.808 97.427,49.606 97.797 C 49.405 98.167,49.257 98.561,49.278 98.672 C 49.353 99.063,48.936 100.500,48.748 100.500 C 48.644 100.500,48.498 100.753,48.424 101.063 C 48.351 101.372,48.215 101.906,48.124 102.250 C 48.032 102.594,48.255 102.256,48.621 101.500 C 48.986 100.744,49.658 99.563,50.114 98.875 C 50.983 97.564,54.050 92.350,55.333 90.000 C 56.058 88.673,58.223 85.055,59.371 83.250 C 59.678 82.769,60.704 81.139,61.652 79.628 C 63.241 77.094,69.375 68.287,69.751 68.000 C 69.840 67.931,70.743 66.806,71.757 65.500 C 89.154 43.077,116.172 22.866,140.750 13.890 C 141.231 13.714,143.031 13.056,144.750 12.427 C 179.638 -0.339,219.362 -0.339,254.250 12.427 C 255.969 13.056,257.769 13.714,258.250 13.890 C 282.828 22.866,309.846 43.077,327.243 65.500 C 328.257 66.806,329.160 67.931,329.249 68.000 C 329.625 68.287,335.759 77.094,337.348 79.628 C 338.296 81.139,339.322 82.769,339.629 83.250 C 340.777 85.055,342.942 88.673,343.667 90.000 C 344.950 92.350,348.017 97.564,348.886 98.875 C 349.342 99.563,350.014 100.744,350.379 101.500 C 350.745 102.256,350.973 102.594,350.887 102.250 C 350.801 101.906,350.681 101.408,350.621 101.143 C 350.561 100.878,350.372 100.575,350.201 100.469 C 350.029 100.364,349.967 100.200,350.061 100.106 C 350.155 100.011,350.103 99.696,349.944 99.405 C 349.785 99.113,349.639 98.668,349.618 98.415 C 349.597 98.161,349.478 97.880,349.353 97.790 C 349.227 97.699,349.093 97.456,349.053 97.250 C 348.755 95.694,343.112 84.956,338.936 78.000 C 338.224 76.813,333.057 69.035,332.461 68.252 C 332.198 67.907,331.258 66.669,330.372 65.500 C 329.486 64.331,328.672 63.263,328.562 63.125 C 328.452 62.987,327.803 62.144,327.119 61.250 C 326.435 60.356,325.706 59.451,325.500 59.239 C 325.294 59.026,324.581 58.210,323.917 57.424 C 323.252 56.639,322.606 56.059,322.482 56.136 C 322.358 56.213,322.314 56.125,322.384 55.941 C 322.504 55.628,321.302 54.247,320.836 54.163 C 320.720 54.142,320.657 54.029,320.696 53.911 C 320.786 53.641,320.265 53.000,319.955 53.000 C 319.826 53.000,319.798 53.141,319.894 53.313 C 319.989 53.484,318.955 52.550,317.596 51.235 C 316.237 49.921,314.113 47.952,312.877 46.860 C 311.640 45.768,310.234 44.519,309.752 44.085 C 309.269 43.650,308.031 42.596,307.000 41.743 C 305.969 40.889,304.812 39.919,304.429 39.586 C 303.803 39.042,301.559 37.292,299.606 35.826 C 293.212 31.023,286.817 26.771,280.875 23.371 C 263.825 13.616,244.955 6.942,225.467 3.775 C 217.221 2.434,211.577 1.990,201.625 1.895 C 196.675 1.848,191.894 1.851,191.000 1.901 M187.688 75.687 C 193.084 75.725,201.916 75.725,207.313 75.687 C 212.709 75.650,208.294 75.619,197.500 75.619 C 186.706 75.619,182.291 75.650,187.688 75.687 M212.500 160.375 C 211.893 160.994,211.452 161.500,211.521 161.500 C 211.590 161.500,212.143 160.994,212.750 160.375 C 213.357 159.756,213.798 159.250,213.729 159.250 C 213.660 159.250,213.107 159.756,212.500 160.375 M196.194 166.683 C 196.782 166.736,197.682 166.735,198.194 166.682 C 198.706 166.628,198.225 166.585,197.125 166.586 C 196.025 166.587,195.606 166.631,196.194 166.683 M199.813 279.672 C 200.053 279.735,200.447 279.735,200.688 279.672 C 200.928 279.609,200.731 279.558,200.250 279.558 C 199.769 279.558,199.572 279.609,199.813 279.672 " stroke="none" fill="#accb7f" fill-rule="evenodd"></path></g></svg>